<svg xmlns="http://www.w3.org/2000/svg" width="92.851" height="92.933" viewBox="0 0 92.851 92.933"><g transform="translate(-262 -23.305)"><path d="M.029,8.471,0,6.507,9.863,0l1.764,4.379.034,2.3L4.385,17.17Z" transform="translate(301.327 61.438) rotate(-107)" fill="#fff" stroke="#979393" stroke-width="1"/><path d="M9.551,2.5,11.79,6.552l-.036-2.405L10.014,0,0,6.537.027,8.38,8.371,3.226Z" transform="translate(301.371 61.584) rotate(-107)" fill="#b9b9b9"/><path d="M1.062,4.5C3.452,3.463,15.178.247,15.178.247a5.554,5.554,0,0,1,3.307,0C20.333.8,32.559,4.5,32.559,4.5s1.8.917,0,2.25c-.022.007-1.563.67-1.686.709L18.133,11.542s-.773.473-3.191-.25S5.286,8.278,5.286,8.278s-.861.181-1.111,1.917c1.348.792.75,2.1,0,2.793.333,1.111,1.4,5.87,1.4,5.87s.181,1.153-1.4,1.139-2.39,0-2.39,0a1.185,1.185,0,0,1-.722-1.584C1.423,17.149,2.4,12.988,2.4,12.988s-1.89-1.577,0-2.939c.069-1.973,1.278-2.4,1.278-2.4L1.062,6.888S-1.328,5.534,1.062,4.5Z" transform="translate(289.301 66.062) rotate(45)" stroke="#707070" stroke-width="1"/><path d="M.792,0l7.7,2.376a6.822,6.822,0,0,0,3.154,0c.492-.141,1.482-.445,2.688-.821C16.5.878,19.271,0,19.271,0l.194,1.433.612,4.527S19.632,9.17,9.92,9.35C8.836,9.364.32,8.739,0,5.766.333,2.9.792,0,.792,0Z" transform="translate(286.707 78.076) rotate(45)" stroke="#707070" stroke-width="1"/><path d="M10.364,22.164S-12.955,0,10.364,0,10.364,22.164,10.364,22.164Z" transform="translate(277.672 85.908) rotate(45)" fill="#ffbb35"/><path d="M7.271,12.954S-9.089,0,7.271,0,7.271,12.954,7.271,12.954Z" transform="translate(277.781 90.214) rotate(45)" fill="#fc7c00"/><path d="M1.317,24.524c-.007,30.916,0,30.917,0,30.917l12.825,3.6,14.321-3.6L27.924,20.6S23.236-2.351,13.2.2C11.076.735,8.122,6.137,5,10.985,4.387,11.941-2.926,17.753,1.317,24.524Z" transform="translate(334.011 24) rotate(45)" fill="#fff" stroke="#2b2b2b" stroke-linejoin="round" stroke-width="1"/><line y1="21.633" x2="22.309" transform="translate(302.914 53.613)" fill="none" stroke="#b4b4b4" stroke-width="1"/><line x2="7.436" y2="11.154" transform="translate(317.786 42.459)" fill="none" stroke="#b4b4b4" stroke-width="1"/><path d="M-6.35-2.135,6.6,3.437" transform="translate(331.454 55.702)" fill="none" stroke="#b4b4b4" stroke-width="1"/><path d="M314.761,350.308c1.806-1.535,9.464-2.944,11.234-1.987,1.156,1.3,2.185,4.57.7,11.072-.085.111-.434,0-1.052-.306a43.617,43.617,0,0,1-6.209-4.3,28.606,28.606,0,0,1-2.872-2.474C316.31,352.035,314.69,350.649,314.761,350.308Z" transform="translate(19.339 -316.194)" fill="#5d5959"/><path d="M319.785,336.722l3.744,4.93,3.837,5.051s4.567-8.8-1.141-9.981S319.785,336.722,319.785,336.722Z" transform="translate(4.52 -299.249)" fill="#343030" stroke="#121010" stroke-linejoin="round" stroke-width="1"/><path d="M361.116,325.448" transform="translate(-23.855 -291.795)" fill="none" stroke="#707070" stroke-width="1"/><line x2="5.746" y2="2.028" transform="translate(326.912 39.755)" fill="none" stroke="#848080" stroke-width="1"/><line x2="4.394" y2="1.352" transform="translate(325.898 37.727)" fill="none" stroke="#848080" stroke-width="1"/><line x2="3.042" y2="1.014" transform="translate(329.616 43.135)" fill="none" stroke="#848080" stroke-width="1"/><path d="M0,10.074v2.291l11.248,7.756,1.919-5.079V12.365L4.772,0Z" transform="matrix(0.934, 0.358, -0.358, 0.934, 322.718, 61.587)" fill="#fff" stroke="#979393" stroke-width="1"/><path d="M0,10.074v2.291l11.248,7.756,1.919-5.079V12.365L4.772,0Z" transform="matrix(0.934, 0.358, -0.358, 0.934, 322.718, 61.587)" fill="#fff" stroke="#979393" stroke-width="1"/><path d="M10.854,7.023l2.46-4.692V5.136l-1.9,4.808L0,2.149V0L9.509,6.152Z" transform="matrix(0.934, 0.358, -0.358, 0.934, 318.908, 71.027)" fill="#5d5959"/><path d="M10.854,7.023l2.46-4.692V5.136l-1.9,4.808L0,2.149V0L9.509,6.152Z" transform="matrix(0.934, 0.358, -0.358, 0.934, 318.908, 71.027)" fill="#5d5959"/></g></svg>