<svg xmlns="http://www.w3.org/2000/svg" width="252.609" height="602.437" viewBox="0 0 252.609 602.437"><g transform="translate(-1281.355 -293.982)"><ellipse cx="126.305" cy="28.116" rx="126.305" ry="28.116" transform="translate(1281.355 840.187)" fill="rgba(209,209,209,0.45)"/><g transform="translate(1110.482 542.408) rotate(-45)"><path d="M.133,38.67,0,29.7,45.027,0,53.08,19.99l.156,10.479L20.016,78.381Z" transform="translate(179.533 170.908) rotate(-107)" fill="#fff" stroke="#979393" stroke-width="2"/><path d="M43.6,11.4l10.221,18.51-.163-10.981L45.716,0,0,29.841l.125,8.413L38.214,14.728Z" transform="translate(179.735 171.577) rotate(-107)" fill="#b9b9b9" stroke="#707070" stroke-linejoin="round" stroke-width="2"/><path d="M4.849,20.536C15.758,15.811,69.29,1.128,69.29,1.128a25.355,25.355,0,0,1,15.1,0c8.436,2.537,64.251,19.408,64.251,19.408s8.224,4.185,0,10.274c-.1.031-7.134,3.059-7.7,3.235L82.778,52.692s-3.53,2.158-14.566-1.14S24.13,37.788,24.13,37.788s-3.932.825-5.074,8.753c6.152,3.615,3.425,9.577,0,12.749,1.522,5.074,6.406,26.8,6.406,26.8s.825,5.264-6.406,5.2-10.909,0-10.909,0-4.947-1.459-3.3-7.23S10.938,59.29,10.938,59.29s-8.626-7.2,0-13.415c.317-9.007,5.835-10.973,5.835-10.973L4.849,31.445S-6.061,25.261,4.849,20.536Z" transform="translate(124.631 192.019) rotate(45)" stroke="#707070" stroke-width="1"/><path d="M3.615,0,38.754,10.846s7.548,1.966,14.4,0C55.4,10.2,59.917,8.812,65.423,7.1,75.341,4.01,87.972,0,87.972,0l.885,6.543L91.651,27.21s-2.03,14.652-46.365,15.476C40.339,42.749,1.459,39.9,0,26.322,1.522,13.256,3.615,0,3.615,0Z" transform="translate(112.79 246.865) rotate(45)" stroke="#707070" stroke-width="1"/><path d="M47.315,101.18S-59.143,0,47.315,0,47.315,101.18,47.315,101.18Z" transform="translate(71.545 282.618) rotate(45)" fill="#ffbb35"/><path d="M33.194,59.134S-41.492,0,33.194,0,33.194,59.134,33.194,59.134Z" transform="translate(72.043 302.272) rotate(45)" fill="#fc7c00"/><path d="M6.012,111.953c-.034,141.134,0,141.142,0,141.142l58.546,16.414,65.377-16.414L127.475,94.056S106.074-10.732,60.24.9c-9.675,2.453-23.164,27.113-37.4,49.244C20.026,54.511-13.357,81.047,6.012,111.953Z" transform="translate(328.738 0) rotate(45)" fill="#fff" stroke="#2b2b2b" stroke-linejoin="round" stroke-width="2"/><line y1="98.756" x2="101.842" transform="translate(186.775 135.188)" fill="none" stroke="#b4b4b4" stroke-width="2"/><line x2="33.947" y2="50.921" transform="translate(254.67 84.267)" fill="none" stroke="#b4b4b4" stroke-width="2"/><path d="M0,0,59.11,25.434" transform="translate(288.077 134.98)" fill="none" stroke="#b4b4b4" stroke-width="2"/><path d="M.01,10.5C8.256,3.487,43.216-2.944,51.3,1.426c5.277,5.937,9.977,20.861,3.216,50.544-.387.5-1.979.022-4.8-1.4-5.985-3-18.149-11.342-28.345-19.63-4.661-3.79-9.449-7.359-13.11-11.3C7.082,18.38-.314,12.052.01,10.5Z" transform="translate(329.135 35.675)" fill="#5d5959"/><path d="M0,2.4,17.093,24.9,34.609,47.96S55.458,7.785,29.4,2.4,0,2.4,0,2.4Z" transform="translate(284.427 59.11)" fill="#343030" stroke="#121010" stroke-linejoin="round" stroke-width="1"/><path d="M0,0" transform="translate(343.575 44.068)" fill="none" stroke="#707070" stroke-width="1"/><line x2="26.232" y2="9.258" transform="translate(296.332 71.923)" fill="none" stroke="#848080" stroke-width="1"/><line x2="20.06" y2="6.172" transform="translate(291.703 62.664)" fill="none" stroke="#848080" stroke-width="1"/><line x2="13.888" y2="4.629" transform="translate(308.677 87.353)" fill="none" stroke="#848080" stroke-width="1"/><path d="M0,45.991V56.449L51.346,91.856,60.1,68.672V56.449L21.787,0Z" transform="matrix(0.934, 0.358, -0.358, 0.934, 277.184, 171.588)" fill="#fff" stroke="#979393" stroke-width="1"/><path d="M0,45.991V56.449L51.346,91.856,60.1,68.672V56.449L21.787,0Z" transform="matrix(0.934, 0.358, -0.358, 0.934, 277.184, 171.588)" fill="#fff" stroke="#979393" stroke-width="2"/><path d="M49.55,32.059,60.781,10.638V23.445L52.126,45.392,0,9.812V0L43.408,28.085Z" transform="matrix(0.934, 0.358, -0.358, 0.934, 259.792, 214.684)" fill="#5d5959"/><path d="M49.55,32.059,60.781,10.638V23.445L52.126,45.392,0,9.812V0L43.408,28.085Z" transform="matrix(0.934, 0.358, -0.358, 0.934, 259.792, 214.684)" fill="#5d5959" stroke="#707070" stroke-linejoin="round" stroke-width="2"/></g></g></svg>